<?xml version="1.0" encoding="utf-8" ?>
<svg xmlns="http://www.w3.org/2000/svg" xmlns:xlink="http://www.w3.org/1999/xlink" width="16" height="16">
	<defs>
		<clipPath id="clip_0">
			<rect x="-167" y="-224" width="1024" height="674" clip-rule="evenodd"/>
		</clipPath>
	</defs>
	<g clip-path="url(#clip_0)">
		<path fill="rgb(133,158,255)" stroke="none" d="M2 0L14 0Q14.1025 0 14.2034 0.00932124Q14.3044 0.0186425 14.4029 0.037209Q14.5014 0.0557754 14.5967 0.0834357Q14.692 0.111096 14.7833 0.147624Q14.8747 0.184153 14.9612 0.229252Q15.0478 0.27435 15.129 0.327651Q15.2101 0.380953 15.2852 0.442021Q15.3602 0.50309 15.4286 0.571429Q15.4969 0.639767 15.558 0.714818Q15.6191 0.789868 15.6724 0.871019Q15.7257 0.95217 15.7708 1.03876Q15.8158 1.12535 15.8524 1.21667Q15.8889 1.30799 15.9166 1.4033Q15.9442 1.49861 15.9628 1.59713Q15.9814 1.69564 15.9907 1.79657Q16 1.89749 16 2L16 14Q16 14.1025 15.9907 14.2034Q15.9814 14.3044 15.9628 14.4029Q15.9442 14.5014 15.9166 14.5967Q15.8889 14.692 15.8524 14.7833Q15.8158 14.8747 15.7708 14.9612Q15.7257 15.0478 15.6724 15.129Q15.6191 15.2101 15.558 15.2852Q15.4969 15.3602 15.4286 15.4286Q15.3602 15.4969 15.2852 15.558Q15.2101 15.6191 15.129 15.6724Q15.0478 15.7257 14.9612 15.7708Q14.8747 15.8158 14.7833 15.8524Q14.692 15.8889 14.5967 15.9166Q14.5014 15.9442 14.4029 15.9628Q14.3044 15.9814 14.2034 15.9907Q14.1025 16 14 16L2 16Q1.89749 16 1.79657 15.9907Q1.69564 15.9814 1.59713 15.9628Q1.49861 15.9442 1.4033 15.9166Q1.30799 15.8889 1.21667 15.8524Q1.12535 15.8158 1.03876 15.7708Q0.95217 15.7257 0.871019 15.6724Q0.789868 15.6191 0.714818 15.558Q0.639767 15.4969 0.571429 15.4286Q0.50309 15.3602 0.442021 15.2852Q0.380953 15.2101 0.327651 15.129Q0.27435 15.0478 0.229252 14.9612Q0.184153 14.8747 0.147624 14.7833Q0.111096 14.692 0.0834357 14.5967Q0.0557754 14.5014 0.037209 14.4029Q0.0186425 14.3044 0.00932124 14.2034Q0 14.1025 0 14L0 2Q0 1.89749 0.00932124 1.79657Q0.0186425 1.69564 0.037209 1.59713Q0.0557754 1.49861 0.0834357 1.4033Q0.111096 1.30799 0.147624 1.21667Q0.184153 1.12535 0.229252 1.03876Q0.27435 0.95217 0.327651 0.871019Q0.380953 0.789868 0.442021 0.714818Q0.50309 0.639767 0.571429 0.571429Q0.639767 0.50309 0.714818 0.442021Q0.789868 0.380953 0.871019 0.327651Q0.95217 0.27435 1.03876 0.229252Q1.12535 0.184153 1.21667 0.147624Q1.30799 0.111096 1.4033 0.0834357Q1.49861 0.0557754 1.59713 0.037209Q1.69564 0.0186425 1.79657 0.00932124Q1.89749 0 2 0L14 0Q14.1025 0 14.2034 0.00932124Q14.3044 0.0186425 14.4029 0.037209Q14.5014 0.0557754 14.5967 0.0834357Q14.692 0.111096 14.7833 0.147624Q14.8747 0.184153 14.9612 0.229252Q15.0478 0.27435 15.129 0.327651Q15.2101 0.380953 15.2852 0.442021Q15.3602 0.50309 15.4286 0.571429Q15.4969 0.639767 15.558 0.714818Q15.6191 0.789868 15.6724 0.871019Q15.7257 0.95217 15.7708 1.03876Q15.8158 1.12535 15.8524 1.21667Q15.8889 1.30799 15.9166 1.4033Q15.9442 1.49861 15.9628 1.59713Q15.9814 1.69564 15.9907 1.79657Q16 1.89749 16 2L16 14Q16 14.1025 15.9907 14.2034Q15.9814 14.3044 15.9628 14.4029Q15.9442 14.5014 15.9166 14.5967Q15.8889 14.692 15.8524 14.7833Q15.8158 14.8747 15.7708 14.9612Q15.7257 15.0478 15.6724 15.129Q15.6191 15.2101 15.558 15.2852Q15.4969 15.3602 15.4286 15.4286Q15.3602 15.4969 15.2852 15.558Q15.2101 15.6191 15.129 15.6724Q15.0478 15.7257 14.9612 15.7708Q14.8747 15.8158 14.7833 15.8524Q14.692 15.8889 14.5967 15.9166Q14.5014 15.9442 14.4029 15.9628Q14.3044 15.9814 14.2034 15.9907Q14.1025 16 14 16L2 16Q1.89749 16 1.79657 15.9907Q1.69564 15.9814 1.59713 15.9628Q1.49861 15.9442 1.4033 15.9166Q1.30799 15.8889 1.21667 15.8524Q1.12535 15.8158 1.03876 15.7708Q0.95217 15.7257 0.871019 15.6724Q0.789868 15.6191 0.714818 15.558Q0.639767 15.4969 0.571429 15.4286Q0.50309 15.3602 0.442021 15.2852Q0.380953 15.2101 0.327651 15.129Q0.27435 15.0478 0.229252 14.9612Q0.184153 14.8747 0.147624 14.7833Q0.111096 14.692 0.0834357 14.5967Q0.0557754 14.5014 0.037209 14.4029Q0.0186425 14.3044 0.00932124 14.2034Q0 14.1025 0 14L0 2Q0 1.89749 0.00932124 1.79657Q0.0186425 1.69564 0.037209 1.59713Q0.0557754 1.49861 0.0834357 1.4033Q0.111096 1.30799 0.147624 1.21667Q0.184153 1.12535 0.229252 1.03876Q0.27435 0.95217 0.327651 0.871019Q0.380953 0.789868 0.442021 0.714818Q0.50309 0.639767 0.571429 0.571429Q0.639767 0.50309 0.714818 0.442021Q0.789868 0.380953 0.871019 0.327651Q0.95217 0.27435 1.03876 0.229252Q1.12535 0.184153 1.21667 0.147624Q1.30799 0.111096 1.4033 0.0834357Q1.49861 0.0557754 1.59713 0.037209Q1.69564 0.0186425 1.79657 0.00932124Q1.89749 0 2 0Z"/>
	</g>
	<defs>
		<clipPath id="clip_1">
			<rect x="-167" y="-224" width="1024" height="674" clip-rule="evenodd"/>
		</clipPath>
	</defs>
	<g clip-path="url(#clip_1)">
		<path fill="rgb(255,255,255)" stroke="none" transform="matrix(0.707107 -0.707107 0.707107 0.707107 2.69672 8.26776)" d="M2 1Q2 0.897283 1.9814 0.798563Q1.96279 0.699843 1.92619 0.608335Q1.88958 0.516827 1.83617 0.43551Q1.78276 0.354193 1.71429 0.285714Q1.64581 0.217236 1.56449 0.163826Q1.48317 0.110415 1.39167 0.0738122Q1.30016 0.037209 1.20144 0.0186045Q1.10272 0 1 0Q0.897283 0 0.798563 0.0186045Q0.699843 0.037209 0.608335 0.0738122Q0.516827 0.110415 0.43551 0.163826Q0.354193 0.217236 0.285714 0.285714Q0.217236 0.354193 0.163826 0.43551Q0.110415 0.516827 0.0738122 0.608335Q0.037209 0.699843 0.0186045 0.798563Q0 0.897283 0 1L0 4.33333Q0 4.43605 0.0186045 4.53477Q0.037209 4.63349 0.0738122 4.725Q0.110415 4.81651 0.163826 4.89782Q0.217236 4.97914 0.285714 5.04762Q0.354193 5.1161 0.43551 5.16951Q0.516827 5.22292 0.608335 5.25952Q0.699843 5.29612 0.798563 5.31473Q0.897283 5.33333 1 5.33333L9 5.33333Q9.10272 5.33333 9.20144 5.31473Q9.30016 5.29612 9.39167 5.25952Q9.48317 5.22292 9.56449 5.16951Q9.64581 5.1161 9.71429 5.04762Q9.78276 4.97914 9.83617 4.89782Q9.88959 4.81651 9.92619 4.725Q9.96279 4.63349 9.9814 4.53477Q10 4.43605 10 4.33333Q10 4.23062 9.9814 4.1319Q9.96279 4.03318 9.92619 3.94167Q9.88959 3.85016 9.83617 3.76884Q9.78276 3.68753 9.71429 3.61905Q9.64581 3.55057 9.56449 3.49716Q9.48317 3.44375 9.39167 3.40715Q9.30016 3.37054 9.20144 3.35194Q9.10272 3.33333 9 3.33333L2 3.33333L2 1Z" fill-rule="evenodd"/>
	</g>

</svg>